<svg width="326" height="50" viewBox="0 0 326 50" fill="none" xmlns="http://www.w3.org/2000/svg">
<path d="M38 0H58.4009V4.15274H43.2021V8.21037H52.6974C57.8369 8.21037 60.5632 9.51009 60.5632 15.121C60.5632 20.6686 57.9935 22 52.8228 22H38V0ZM43.2021 12.585V17.6254H52.196C54.9851 17.6254 55.3612 16.9914 55.3612 15.0576C55.3612 13.3775 55.0791 12.585 52.3841 12.585H43.2021Z" fill="white"/>
<path d="M69.6747 0V17.6254H70.3955L83.6514 0H92.3947V22H87.1926V4.37464H86.4718L73.4039 22H64.4726V0H69.6747Z" fill="white"/>
<path d="M98.0835 0H120.709V22H115.507V4.37464H103.286V14.0115C103.286 19.6542 100.998 22 97.112 22H94.9183V17.6254C97.5821 17.6254 98.0835 16.6109 98.0835 13.4092V0Z" fill="white"/>
<path d="M124.396 22V0H146.614V4.15274H129.598V8.97118H146.081V12.8069H129.598V17.8473H146.614V22H124.396Z" fill="white"/>
<path d="M149.528 0H173V4.37464H163.818V22H158.616V4.37464H149.528V0Z" fill="white"/>
<path d="M217 0H240.366V4.37464H231.226V22H226.047V4.37464H217V0Z" fill="white"/>
<path d="M242.949 22V0H265.068V4.15274H248.128V8.97118H264.538V12.8069H248.128V17.8473H265.068V22H242.949Z" fill="white"/>
<path d="M273.958 0V8.21037H277.016L286.468 0H294.236L281.477 10.3026L294.735 22H287.123L277.109 12.585H273.958V22H268.78V0H273.958Z" fill="white"/>
<path d="M301.511 22H295.459L306.939 0H314.613L326 22H319.917L317.14 16.4524H304.318L301.511 22ZM306.409 12.2997H315.05L310.932 4.12104H310.682L306.409 12.2997Z" fill="white"/>
<path d="M180.141 14.0399C180.141 16.8917 181.04 17.6752 184.168 17.6752H205.832C209.115 17.6752 209.859 16.9544 209.859 14.0085V8.21083C209.859 5.04559 208.805 4.32479 205.739 4.32479H184.261C181.04 4.32479 180.141 5.1396 180.141 8.24217V14.0399ZM215 14.5726C215 19.9943 213.235 22 207.226 22H182.929C177.168 22 175 19.8376 175 14.5726V7.74074C175 1.78632 177.075 0 182.929 0H207.226C212.553 0 215 1.62963 215 7.74074V14.5726Z" fill="white"/>
<path d="M9.87234 0H13.234L11.8298 5.44762H17.1064L18.5532 0H21.8723L20.4681 5.44762H26L25.234 8.8H19.5745L18.5106 12.9905H24.0851L23.234 16.3429H17.6596L16.2553 22H12.8511L14.3404 16.3429H9.06383L7.48936 22H4.12766L5.70213 16.3429H0L0.723404 12.9905H6.59575L7.65957 8.8H1.82979L2.80851 5.44762H8.51064L9.87234 0ZM16.2979 8.8H10.9787L9.91489 12.9905H15.1915L16.2979 8.8Z" fill="white"/>
<path d="M46.352 43.12H48.356C48.344 45.34 47.804 46 45.344 46H41.636C39.332 46 38.6 45.292 38.6 43.06V40.696C38.6 38.26 39.38 37.576 41.828 37.576H45.14C47.108 37.576 48.344 38.14 48.344 40.48H46.352C46.352 39.604 45.908 39.232 44.756 39.232H42.2C40.868 39.232 40.592 39.46 40.592 40.768V42.832C40.592 44.104 41.06 44.344 42.2 44.344H44.756C45.944 44.344 46.352 44.128 46.352 43.12ZM49.7379 46V37.672H58.2459V39.244H51.7299V41.068H58.0419V42.52H51.7299V44.428H58.2459V46H49.7379ZM61.5937 43.54V46H59.6017V37.672H65.2777C67.3777 37.672 68.2057 38.488 68.2057 40.588C68.2057 42.7 67.3537 43.54 65.3017 43.54H61.5937ZM61.5937 39.328V41.884H64.9177C65.9257 41.884 66.2137 41.488 66.2137 40.588C66.2137 39.772 65.9617 39.328 64.9177 39.328H61.5937ZM71.2633 39.244V41.044H75.3313C75.8713 41.044 76.1473 40.624 76.1473 40.072C76.1473 39.568 75.8713 39.244 75.3193 39.244H71.2633ZM69.2713 46V37.672H75.2713C77.1193 37.672 78.1393 38.224 78.1393 39.76C78.1393 41.104 77.7793 41.392 77.1073 41.608C77.9353 41.884 78.4633 42.244 78.4633 43.552C78.4633 45.34 77.5633 46 75.6793 46H69.2713ZM71.2633 42.52V44.428H75.2593C76.3273 44.428 76.4713 44.188 76.4713 43.456C76.4713 42.82 76.3633 42.52 75.3313 42.52H71.2633ZM81.952 37.672V44.344H82.228L87.304 37.672H90.652V46H88.66V39.328H88.384L83.38 46H79.96V37.672H81.952ZM99.7543 43.12H101.758C101.746 45.34 101.206 46 98.7463 46H95.0383C92.7343 46 92.0023 45.292 92.0023 43.06V40.696C92.0023 38.26 92.7823 37.576 95.2303 37.576H98.5423C100.51 37.576 101.746 38.14 101.746 40.48H99.7543C99.7543 39.604 99.3103 39.232 98.1583 39.232H95.6023C94.2703 39.232 93.9943 39.46 93.9943 40.768V42.832C93.9943 44.104 94.4623 44.344 95.6023 44.344H98.1583C99.3463 44.344 99.7543 44.128 99.7543 43.12ZM107.253 37.672H115.065V39.244H109.245V40.78H112.881C114.849 40.78 115.893 41.272 115.893 43.396C115.893 45.496 114.909 46 112.929 46H107.253V37.672ZM109.245 42.436V44.344H112.689C113.757 44.344 113.901 44.104 113.901 43.372C113.901 42.736 113.793 42.436 112.761 42.436H109.245ZM119.262 43.54V46H117.27V37.672H122.946C125.046 37.672 125.874 38.488 125.874 40.588C125.874 42.7 125.022 43.54 122.97 43.54H119.262ZM119.262 39.328V41.884H122.586C123.594 41.884 123.882 41.488 123.882 40.588C123.882 39.772 123.63 39.328 122.586 39.328H119.262ZM128.859 42.952C128.859 44.044 129.207 44.344 130.419 44.344H133.059C134.331 44.344 134.619 44.068 134.619 42.94V40.72C134.619 39.508 134.211 39.232 133.023 39.232H130.455C129.207 39.232 128.859 39.544 128.859 40.732V42.952ZM136.611 43.156C136.611 45.232 135.927 46 133.599 46H129.939C127.707 46 126.867 45.172 126.867 43.156V40.54C126.867 38.26 127.671 37.576 129.939 37.576H133.599C135.663 37.576 136.611 38.2 136.611 40.54V43.156ZM139.816 37.672V40.864H144.964V37.672H146.956V46H144.964V42.52H139.816V46H137.824V37.672H139.816ZM150.343 37.672V44.344H150.619L155.695 37.672H159.043V46H157.051V39.328H156.775L151.771 46H148.351V37.672H150.343ZM162.457 43.54V46H160.465V37.672H166.141C168.241 37.672 169.069 38.488 169.069 40.588C169.069 42.7 168.217 43.54 166.165 43.54H162.457ZM162.457 39.328V41.884H165.781C166.789 41.884 167.077 41.488 167.077 40.588C167.077 39.772 166.825 39.328 165.781 39.328H162.457ZM172.055 42.952C172.055 44.044 172.403 44.344 173.615 44.344H176.255C177.527 44.344 177.815 44.068 177.815 42.94V40.72C177.815 39.508 177.407 39.232 176.219 39.232H173.651C172.403 39.232 172.055 39.544 172.055 40.732V42.952ZM179.807 43.156C179.807 45.232 179.123 46 176.795 46H173.135C170.903 46 170.063 45.172 170.063 43.156V40.54C170.063 38.26 170.867 37.576 173.135 37.576H176.795C178.859 37.576 179.807 38.2 179.807 40.54V43.156ZM183.119 39.244V41.044H187.187C187.727 41.044 188.003 40.624 188.003 40.072C188.003 39.568 187.727 39.244 187.175 39.244H183.119ZM181.127 46V37.672H187.127C188.975 37.672 189.995 38.224 189.995 39.76C189.995 41.104 189.635 41.392 188.963 41.608C189.791 41.884 190.319 42.244 190.319 43.552C190.319 45.34 189.419 46 187.535 46H181.127ZM183.119 42.52V44.428H187.115C188.183 44.428 188.327 44.188 188.327 43.456C188.327 42.82 188.219 42.52 187.187 42.52H183.119ZM193.447 46H191.119L195.535 37.672H198.487L202.867 46H200.527L199.459 43.9H194.527L193.447 46ZM195.331 42.328H198.655L197.071 39.232H196.975L195.331 42.328ZM205.452 37.672V40.864H210.6V37.672H212.592V46H210.6V42.52H205.452V46H203.46V37.672H205.452ZM215.979 37.672V44.344H216.255L221.331 37.672H224.679V46H222.687V39.328H222.411L217.407 46H213.987V37.672H215.979ZM233.59 39.244H229.426C228.538 39.244 228.286 39.64 228.286 40.516C228.286 41.404 228.646 41.788 229.486 41.788H233.59V39.244ZM233.59 43.36H230.278L228.286 46H225.694L228.13 43.096C227.182 42.88 226.294 41.872 226.294 40.6C226.294 38.236 227.53 37.672 229.258 37.672H235.582V46H233.59V43.36ZM241.022 37.672H248.834V39.244H243.014V40.78H246.65C248.618 40.78 249.662 41.272 249.662 43.396C249.662 45.496 248.678 46 246.698 46H241.022V37.672ZM243.014 42.436V44.344H246.458C247.526 44.344 247.67 44.104 247.67 43.372C247.67 42.736 247.562 42.436 246.53 42.436H243.014ZM253.151 37.672V44.344H253.427L258.503 37.672H261.851V46H259.859V39.328H259.583L254.579 46H251.159V37.672H253.151ZM264.03 37.672H272.694V46H270.702V39.328H266.022V42.976C266.022 45.112 265.146 46 263.658 46H262.818V44.344C263.838 44.344 264.03 43.96 264.03 42.748V37.672ZM274.105 46V37.672H282.613V39.244H276.097V41.068H282.409V42.52H276.097V44.428H282.613V46H274.105ZM283.729 37.672H292.717V39.328H289.201V46H287.209V39.328H283.729V37.672ZM295.559 42.952C295.559 44.044 295.907 44.344 297.119 44.344H299.759C301.031 44.344 301.319 44.068 301.319 42.94V40.72C301.319 39.508 300.911 39.232 299.723 39.232H297.155C295.907 39.232 295.559 39.544 295.559 40.732V42.952ZM303.311 43.156C303.311 45.232 302.627 46 300.299 46H296.639C294.407 46 293.567 45.172 293.567 43.156V40.54C293.567 38.26 294.371 37.576 296.639 37.576H300.299C302.363 37.576 303.311 38.2 303.311 40.54V43.156ZM306.623 39.244V41.044H310.691C311.231 41.044 311.507 40.624 311.507 40.072C311.507 39.568 311.231 39.244 310.679 39.244H306.623ZM304.631 46V37.672H310.631C312.479 37.672 313.499 38.224 313.499 39.76C313.499 41.104 313.139 41.392 312.467 41.608C313.295 41.884 313.823 42.244 313.823 43.552C313.823 45.34 312.923 46 311.039 46H304.631ZM306.623 42.52V44.428H310.619C311.687 44.428 311.831 44.188 311.831 43.456C311.831 42.82 311.723 42.52 310.691 42.52H306.623Z" fill="white"/>
</svg>
