<svg width="20" height="20" viewBox="0 0 20 20" fill="none" xmlns="http://www.w3.org/2000/svg">
<g clip-path="url(#clip0_136_2033)">
<path d="M5.41667 12.5001H2.91667C2.68667 12.5001 2.5 12.3134 2.5 12.0834V9.58341C2.5 9.35341 2.68667 9.16675 2.91667 9.16675H5.41667C5.64667 9.16675 5.83333 9.35341 5.83333 9.58341V12.0834C5.83333 12.3134 5.64667 12.5001 5.41667 12.5001ZM3.33333 11.6667H5V10.0001H3.33333V11.6667Z" fill="#272727"/>
<path d="M5.41667 17.5001H2.91667C2.68667 17.5001 2.5 17.3134 2.5 17.0834V14.5834C2.5 14.3534 2.68667 14.1667 2.91667 14.1667H5.41667C5.64667 14.1667 5.83333 14.3534 5.83333 14.5834V17.0834C5.83333 17.3134 5.64667 17.5001 5.41667 17.5001ZM3.33333 16.6667H5V15.0001H3.33333V16.6667Z" fill="#272727"/>
<path d="M11.2499 12.5001H8.74992C8.51992 12.5001 8.33325 12.3134 8.33325 12.0834V9.58341C8.33325 9.35341 8.51992 9.16675 8.74992 9.16675H11.2499C11.4799 9.16675 11.6666 9.35341 11.6666 9.58341V12.0834C11.6666 12.3134 11.4799 12.5001 11.2499 12.5001ZM9.16659 11.6667H10.8333V10.0001H9.16659V11.6667Z" fill="#272727"/>
<path d="M11.2499 17.5001H8.74992C8.51992 17.5001 8.33325 17.3134 8.33325 17.0834V14.5834C8.33325 14.3534 8.51992 14.1667 8.74992 14.1667H11.2499C11.4799 14.1667 11.6666 14.3534 11.6666 14.5834V17.0834C11.6666 17.3134 11.4799 17.5001 11.2499 17.5001ZM9.16659 16.6667H10.8333V15.0001H9.16659V16.6667Z" fill="#272727"/>
<path d="M17.0834 12.5001H14.5834C14.3534 12.5001 14.1667 12.3134 14.1667 12.0834V9.58341C14.1667 9.35341 14.3534 9.16675 14.5834 9.16675H17.0834C17.3134 9.16675 17.5001 9.35341 17.5001 9.58341V12.0834C17.5001 12.3134 17.3134 12.5001 17.0834 12.5001ZM15.0001 11.6667H16.6667V10.0001H15.0001V11.6667Z" fill="#272727"/>
<path d="M17.9167 20.0001H2.08333C0.935 20.0001 0 19.0651 0 17.9167V3.75008C0 2.60175 0.935 1.66675 2.08333 1.66675H17.9167C19.065 1.66675 20 2.60175 20 3.75008V17.9167C20 19.0651 19.065 20.0001 17.9167 20.0001ZM2.08333 2.50008C1.39417 2.50008 0.833333 3.06091 0.833333 3.75008V17.9167C0.833333 18.6059 1.39417 19.1667 2.08333 19.1667H17.9167C18.6058 19.1667 19.1667 18.6059 19.1667 17.9167V3.75008C19.1667 3.06091 18.6058 2.50008 17.9167 2.50008H2.08333Z" fill="#272727"/>
<path d="M19.5833 7.50008H0.416667C0.186667 7.50008 0 7.31341 0 7.08341C0 6.85341 0.186667 6.66675 0.416667 6.66675H19.5833C19.8133 6.66675 20 6.85341 20 7.08341C20 7.31341 19.8133 7.50008 19.5833 7.50008Z" fill="#272727"/>
<path d="M4.58341 4.16667C4.35341 4.16667 4.16675 3.98 4.16675 3.75V0.416667C4.16675 0.186667 4.35341 0 4.58341 0C4.81341 0 5.00008 0.186667 5.00008 0.416667V3.75C5.00008 3.98 4.81341 4.16667 4.58341 4.16667Z" fill="#272727"/>
<path d="M15.4167 4.16667C15.1867 4.16667 15 3.98 15 3.75V0.416667C15 0.186667 15.1867 0 15.4167 0C15.6467 0 15.8333 0.186667 15.8333 0.416667V3.75C15.8333 3.98 15.6467 4.16667 15.4167 4.16667Z" fill="#272727"/>
</g>
<defs>
<clipPath id="clip0_136_2033">
<rect width="20" height="20" fill="white"/>
</clipPath>
</defs>
</svg>
