<svg width="9" height="12" viewBox="0 0 9 12" fill="none" xmlns="http://www.w3.org/2000/svg">
<path d="M5.19987 7.13883H0V5.05801H5.12471C5.48484 5.05801 5.77763 5.00287 6.0031 4.89261C6.2317 4.77879 6.39924 4.61872 6.50571 4.41242C6.61531 4.20256 6.66855 3.95001 6.66541 3.65478C6.66855 3.37023 6.61531 3.11235 6.50571 2.88114C6.39924 2.64638 6.2364 2.45964 6.01719 2.32092C5.80112 2.1822 5.52868 2.11284 5.19987 2.11284H3.62159V12H1.31054V0H5.19987C5.97648 0 6.64976 0.156507 7.21969 0.46952C7.78963 0.782533 8.2296 1.21115 8.53962 1.75536C8.84964 2.29958 9.00308 2.92027 8.99995 3.61744C9.00308 4.3644 8.84494 4.99932 8.52553 5.52219C8.20925 6.04507 7.76457 6.44522 7.19151 6.72267C6.62157 7.00011 5.95769 7.13883 5.19987 7.13883ZM5.71187 7.7364V9.81189H0V7.7364H5.71187Z" fill="white"/>
</svg>
