<svg width="20" height="20" viewBox="0 0 20 20" fill="none" xmlns="http://www.w3.org/2000/svg">
<g clip-path="url(#clip0_804_3550)">
<path fill-rule="evenodd" clip-rule="evenodd" d="M0.0830075 16.5475C0.0830074 16.1332 0.418794 15.7975 0.833007 15.7975L12.6872 15.7975L12.6872 15.2379C12.6872 14.7217 12.8657 14.2096 13.2083 13.8181C13.5538 13.4233 14.0454 13.1784 14.583 13.1784C15.1206 13.1784 15.6122 13.4233 15.9577 13.8181C16.3003 14.2096 16.4788 14.7217 16.4788 15.2379L16.4788 15.7975L19.1663 15.7975C19.5806 15.7975 19.9163 16.1332 19.9163 16.5475C19.9163 16.9617 19.5806 17.2975 19.1663 17.2975L16.4788 17.2975L16.4788 17.857C16.4788 18.3733 16.3003 18.8853 15.9577 19.2768C15.6123 19.6716 15.1206 19.9165 14.583 19.9165C14.0454 19.9165 13.5538 19.6716 13.2083 19.2768C12.8657 18.8853 12.6872 18.3733 12.6872 17.857L12.6872 17.2975L0.833008 17.2975C0.418794 17.2975 0.0830075 16.9617 0.0830075 16.5475ZM14.1872 17.857C14.1872 18.0353 14.2501 18.1895 14.3372 18.2891C14.4216 18.3855 14.5128 18.4165 14.583 18.4165C14.6532 18.4165 14.7444 18.3855 14.8288 18.2891C14.916 18.1895 14.9788 18.0353 14.9788 17.857L14.9788 15.2379C14.9788 15.0596 14.916 14.9054 14.8288 14.8058C14.7444 14.7094 14.6532 14.6784 14.583 14.6784C14.5128 14.6784 14.4216 14.7094 14.3372 14.8058C14.2501 14.9054 14.1872 15.0596 14.1872 15.2379L14.1872 17.857ZM0.0830069 9.99984C0.0830068 9.58562 0.418793 9.24984 0.833007 9.24984L3.52051 9.24984L3.52051 8.69031C3.52051 8.17403 3.69906 7.66203 4.04168 7.27046C4.3871 6.8757 4.87876 6.63079 5.41634 6.63079C5.95392 6.63079 6.44558 6.8757 6.791 7.27046C7.13362 7.66202 7.31217 8.17403 7.31217 8.69031L7.31217 9.24984L19.1663 9.24984C19.5806 9.24983 19.9163 9.58562 19.9163 9.99983C19.9163 10.414 19.5806 10.7498 19.1663 10.7498L7.31217 10.7498L7.31217 11.3094C7.31217 11.8256 7.13362 12.3376 6.791 12.7292C6.44558 13.124 5.95393 13.3689 5.41634 13.3689C4.87876 13.3689 4.3871 13.124 4.04168 12.7292C3.69906 12.3376 3.52051 11.8256 3.52051 11.3094L3.52051 10.7498L0.833007 10.7498C0.418793 10.7498 0.0830069 10.414 0.0830069 9.99984ZM5.02051 11.3094C5.02051 11.4877 5.0834 11.6419 5.17055 11.7415C5.2549 11.8379 5.34614 11.8689 5.41634 11.8689C5.48654 11.8689 5.57778 11.8379 5.66213 11.7415C5.74929 11.6419 5.81217 11.4877 5.81217 11.3094L5.81217 8.69031C5.81217 8.51198 5.74929 8.35782 5.66213 8.25822C5.57778 8.16181 5.48654 8.13079 5.41634 8.13079C5.34614 8.13079 5.2549 8.16181 5.17055 8.25822C5.08339 8.35782 5.02051 8.51197 5.02051 8.69031L5.02051 11.3094ZM0.0830064 3.45222C0.0830063 3.038 0.418793 2.70222 0.833006 2.70222L12.6872 2.70221L12.6872 2.14269C12.6872 1.62641 12.8657 1.1144 13.2083 0.722838C13.5538 0.328074 14.0454 0.0831686 14.583 0.0831685C15.1206 0.0831684 15.6122 0.328074 15.9577 0.722838C16.3003 1.1144 16.4788 1.62641 16.4788 2.14269L16.4788 2.70221L19.1663 2.70221C19.5806 2.70221 19.9163 3.038 19.9163 3.45221C19.9163 3.86643 19.5806 4.20221 19.1663 4.20221L16.4788 4.20221L16.4788 4.76174C16.4788 5.27802 16.3003 5.79003 15.9577 6.18159C15.6122 6.57635 15.1206 6.82126 14.583 6.82126C14.0454 6.82126 13.5538 6.57635 13.2083 6.18159C12.8657 5.79003 12.6872 5.27802 12.6872 4.76174L12.6872 4.20221L0.833006 4.20222C0.418793 4.20222 0.0830064 3.86643 0.0830064 3.45222ZM14.1872 4.76174C14.1872 4.94008 14.2501 5.09423 14.3372 5.19383C14.4216 5.29024 14.5128 5.32126 14.583 5.32126C14.6532 5.32126 14.7444 5.29024 14.8288 5.19383C14.916 5.09423 14.9788 4.94007 14.9788 4.76174L14.9788 2.14269C14.9788 1.96435 14.916 1.8102 14.8288 1.71059C14.7444 1.61419 14.6532 1.58317 14.583 1.58317C14.5128 1.58317 14.4216 1.61419 14.3372 1.71059C14.2501 1.8102 14.1872 1.96435 14.1872 2.14269L14.1872 4.76174Z" fill="white"/>
</g>
<defs>
<clipPath id="clip0_804_3550">
<rect width="20" height="20" fill="white" transform="translate(20 20) rotate(180)"/>
</clipPath>
</defs>
</svg>
