<svg width="60" height="60" viewBox="0 0 60 60" fill="none" xmlns="http://www.w3.org/2000/svg">
<path d="M35.973 37.071C35.7679 37.071 35.5614 36.9919 35.4047 36.8351L29.5354 30.9659C29.2219 30.6524 29.2219 30.1427 29.5354 29.8292C29.8488 29.5158 30.3586 29.5158 30.672 29.8292L36.5413 35.6985C36.8548 36.012 36.8548 36.5217 36.5413 36.8351C36.3846 36.9933 36.1795 37.071 35.973 37.071Z" fill="white"/>
<path d="M28.4761 56.5407C24.7278 56.5407 21.0908 55.8068 17.6662 54.3582C14.3588 52.9593 11.3897 50.957 8.83961 48.4069C6.28946 45.8567 4.28714 42.8862 2.8883 39.5802C1.43819 36.1556 0.704346 32.5186 0.704346 28.7703C0.704346 25.022 1.43819 21.385 2.88683 17.9604C4.28568 14.653 6.288 11.6839 8.83814 9.1338C11.3883 6.58365 14.3588 4.58133 17.6648 3.18249C21.0894 1.73384 24.7264 1 28.4747 1C32.223 1 35.86 1.73384 39.2846 3.18249C42.592 4.58133 45.5611 6.58365 48.1112 9.1338C50.6614 11.6839 52.6637 14.6545 54.0625 17.9604C55.5112 21.385 56.245 25.022 56.245 28.7703C56.245 31.2282 55.9242 33.667 55.29 36.0179C55.1743 36.4471 54.7334 36.7005 54.3042 36.5848C53.875 36.4691 53.6216 36.0282 53.7373 35.599C54.335 33.3843 54.6367 31.0861 54.6367 28.7703C54.6367 14.3439 42.8996 2.6083 28.4747 2.6083C14.0497 2.6083 2.31265 14.3439 2.31265 28.7703C2.31265 43.1967 14.0497 54.9324 28.4747 54.9324C31.1054 54.9324 33.7009 54.5427 36.1925 53.7752C36.6173 53.6448 37.0669 53.8821 37.1973 54.3069C37.3277 54.7317 37.0904 55.1814 36.6656 55.3117C34.0217 56.1276 31.2665 56.5407 28.4761 56.5407Z" fill="white"/>
<path d="M28.4767 51.7642C25.3728 51.7642 22.3613 51.1564 19.5255 49.9567C16.7879 48.7981 14.3286 47.14 12.2164 45.0293C10.1042 42.9171 8.44758 40.4593 7.28896 37.7202C6.08932 34.8844 5.48145 31.8728 5.48145 28.769C5.48145 25.6652 6.08932 22.6537 7.28896 19.8179C8.44758 17.0803 10.1057 14.6209 12.2164 12.5088C14.3286 10.3966 16.7864 8.73994 19.5255 7.58131C22.3613 6.38168 25.3728 5.7738 28.4767 5.7738C31.5805 5.7738 34.592 6.38168 37.4278 7.58131C40.1654 8.73994 42.6248 10.398 44.7369 12.5088C46.8491 14.6209 48.5058 17.0788 49.6644 19.8179C50.864 22.6537 51.4719 25.6652 51.4719 28.769C51.4719 30.2572 51.3283 31.7483 51.0456 33.1985C50.9797 33.5764 50.6502 33.8635 50.2532 33.8635C49.8094 33.8635 49.4491 33.5031 49.4491 33.0593C49.4491 33.008 49.4535 32.9553 49.4637 32.904C49.7288 31.5506 49.8636 30.1591 49.8636 28.769C49.8636 23.0565 47.6386 17.6867 43.6003 13.6469C39.5605 9.60707 34.1907 7.38357 28.4781 7.38357C22.7656 7.38357 17.3958 9.60854 13.356 13.6469C9.31618 17.6867 7.09268 23.0565 7.09268 28.769C7.09268 34.4816 9.31765 39.8514 13.356 43.8912C17.3958 47.931 22.7656 50.1545 28.4781 50.1545C30.126 50.1545 31.765 49.967 33.3528 49.5964C33.7849 49.4953 34.2171 49.7649 34.3181 50.197C34.4192 50.6291 34.1497 51.0626 33.7176 51.1622C32.0097 51.5621 30.2461 51.7642 28.4767 51.7642Z" fill="white"/>
<path d="M28.4759 31.8419C26.7812 31.8419 25.4028 30.4636 25.4028 28.7689C25.4028 27.0741 26.7812 25.6958 28.4759 25.6958C30.1706 25.6958 31.549 27.0741 31.549 28.7689C31.5475 30.4636 30.1692 31.8419 28.4759 31.8419ZM28.4759 27.3056C27.6688 27.3056 27.0126 27.9618 27.0126 28.7689C27.0126 29.5759 27.6688 30.2322 28.4759 30.2322C29.283 30.2322 29.9392 29.5759 29.9392 28.7689C29.9392 27.9618 29.283 27.3056 28.4759 27.3056Z" fill="white"/>
<path d="M28.4758 27.3261C28.032 27.3261 27.6716 26.9657 27.6716 26.5219V17.937C27.6716 17.4931 28.032 17.1328 28.4758 17.1328C28.9196 17.1328 29.2799 17.4931 29.2799 17.937V26.5219C29.2799 26.9657 28.9196 27.3261 28.4758 27.3261Z" fill="white"/>
<path d="M28.4758 10.7524C28.032 10.7524 27.6716 10.3921 27.6716 9.94824V6.5793C27.6716 6.13548 28.032 5.77515 28.4758 5.77515C28.9196 5.77515 29.2799 6.13548 29.2799 6.5793V9.94824C29.2799 10.3921 28.9196 10.7524 28.4758 10.7524Z" fill="white"/>
<path d="M15.1661 16.2656C14.9595 16.2656 14.7545 16.1865 14.5977 16.0298L12.2161 13.6481C11.9026 13.3347 11.9026 12.8249 12.2161 12.5115C12.5295 12.198 13.0392 12.198 13.3527 12.5115L15.7344 14.8932C16.0479 15.2066 16.0479 15.7163 15.7344 16.0298C15.5777 16.1865 15.3726 16.2656 15.1661 16.2656Z" fill="white"/>
<path d="M9.65429 29.5746H6.28535C5.84153 29.5746 5.4812 29.2143 5.4812 28.7705C5.4812 28.3266 5.84153 27.9663 6.28535 27.9663H9.65429C10.0981 27.9663 10.4584 28.3266 10.4584 28.7705C10.4584 29.2143 10.0981 29.5746 9.65429 29.5746Z" fill="white"/>
<path d="M12.7844 45.265C12.5778 45.265 12.3728 45.1859 12.2161 45.0292C11.9026 44.7157 11.9026 44.206 12.2161 43.8925L14.5977 41.5109C14.9112 41.1974 15.4209 41.1974 15.7344 41.5109C16.0479 41.8243 16.0479 42.334 15.7344 42.6475L13.3527 45.0292C13.196 45.1859 12.9909 45.265 12.7844 45.265Z" fill="white"/>
<path d="M28.4758 51.7641C28.032 51.7641 27.6716 51.4038 27.6716 50.96V47.591C27.6716 47.1472 28.032 46.7869 28.4758 46.7869C28.9196 46.7869 29.2799 47.1472 29.2799 47.591V50.96C29.2799 51.4038 28.9196 51.7641 28.4758 51.7641Z" fill="white"/>
<path d="M50.6658 29.5746H47.2968C46.853 29.5746 46.4927 29.2143 46.4927 28.7705C46.4927 28.3266 46.853 27.9663 47.2968 27.9663H50.6658C51.1096 27.9663 51.4699 28.3266 51.4699 28.7705C51.4699 29.2143 51.1096 29.5746 50.6658 29.5746Z" fill="white"/>
<path d="M41.7851 16.2656C41.5786 16.2656 41.3735 16.1865 41.2168 16.0298C40.9033 15.7163 40.9033 15.2066 41.2168 14.8932L43.5985 12.5115C43.9119 12.198 44.4217 12.198 44.7351 12.5115C45.0486 12.8249 45.0486 13.3347 44.7351 13.6481L42.3534 16.0298C42.1967 16.1865 41.9902 16.2656 41.7851 16.2656Z" fill="white"/>
<path d="M45.4704 59C43.6043 59 41.7938 58.6338 40.0889 57.9131C38.4425 57.2173 36.9645 56.2198 35.6946 54.9514C34.4246 53.6814 33.4286 52.2035 32.7328 50.5571C32.0122 48.8521 31.646 47.0417 31.646 45.1756C31.646 43.3095 32.0122 41.499 32.7328 39.7941C33.4286 38.1477 34.4261 36.6697 35.6946 35.3998C36.9645 34.1298 38.4425 33.1338 40.0889 32.438C41.7938 31.7174 43.6043 31.3512 45.4704 31.3512C47.3365 31.3512 49.1469 31.7174 50.8519 32.438C52.4983 33.1338 53.9762 34.1313 55.2462 35.3998C56.5161 36.6697 57.5121 38.1477 58.2079 39.7941C58.9286 41.499 59.2948 43.3095 59.2948 45.1756C59.2948 47.0417 58.9286 48.8521 58.2079 50.5571C57.5121 52.2035 56.5146 53.6814 55.2462 54.9514C53.9762 56.2213 52.4983 57.2173 50.8519 57.9131C49.1469 58.6338 47.3365 59 45.4704 59ZM45.4704 32.958C38.734 32.958 33.2543 38.4377 33.2543 45.1741C33.2543 51.9105 38.734 57.3902 45.4704 57.3902C52.2068 57.3902 57.6864 51.9105 57.6864 45.1741C57.6864 38.4392 52.2068 32.958 45.4704 32.958Z" fill="white"/>
<path d="M52.9652 46.4938H46.8571C46.4133 46.4938 46.053 46.1335 46.053 45.6897V40.2496C46.053 39.8058 46.4133 39.4454 46.8571 39.4454C47.301 39.4454 47.6613 39.8058 47.6613 40.2496V44.8855H52.9652C53.409 44.8855 53.7693 45.2459 53.7693 45.6897C53.7693 46.1335 53.409 46.4938 52.9652 46.4938Z" fill="white"/>
<path d="M51.3525 50.9043C50.9087 50.9043 50.5483 50.5439 50.5483 50.1001V41.0655C50.5483 40.6217 50.9087 40.2614 51.3525 40.2614C51.7963 40.2614 52.1566 40.6217 52.1566 41.0655V50.1001C52.1566 50.5454 51.7963 50.9043 51.3525 50.9043Z" fill="white"/>
<path d="M43.8097 50.9044H38.453C38.1513 50.9044 37.8745 50.7344 37.7368 50.4664C37.5991 50.1969 37.624 49.8732 37.8012 49.6285C38.3608 48.8552 38.9247 48.0407 39.5223 47.1399C39.6922 46.8821 39.8724 46.6199 40.0467 46.3665C40.7923 45.2811 41.5627 44.1591 41.9099 42.9917C42.0124 42.6461 42.1369 42.0118 41.8147 41.6442C41.4953 41.278 40.9651 41.0509 40.4334 41.0509C39.5209 41.0509 38.7782 41.7936 38.7782 42.7061C38.7782 43.1499 38.4179 43.5103 37.9741 43.5103C37.5303 43.5103 37.1699 43.1499 37.1699 42.7061C37.1699 40.9074 38.6332 39.4426 40.4334 39.4426C41.4324 39.4426 42.4006 39.8703 43.026 40.5851C43.6398 41.2882 43.7906 42.3048 43.4508 43.4487C43.0319 44.8593 42.1882 46.0882 41.3723 47.2762C41.1936 47.5354 41.0252 47.7815 40.8611 48.0276C40.5682 48.4685 40.284 48.8888 40.0042 49.2946H43.8067C44.2506 49.2946 44.6109 49.6549 44.6109 50.0987C44.6138 50.5455 44.2535 50.9044 43.8097 50.9044Z" fill="white"/>
</svg>
