<svg width="19" height="24" viewBox="0 0 19 24" fill="none" xmlns="http://www.w3.org/2000/svg">
<path d="M8.32734 23.4607C5.78906 20.4435 0 13.1309 0 9.02335C0 4.04171 4.25521 0 9.5 0C14.7448 0 19 4.04171 19 9.02335C19 13.1309 13.2109 20.4435 10.6727 23.4607C10.0641 24.1798 8.93594 24.1798 8.32734 23.4607ZM9.5 12.0311C11.2466 12.0311 12.6667 10.6823 12.6667 9.02335C12.6667 7.36437 11.2466 6.01557 9.5 6.01557C7.75339 6.01557 6.33333 7.36437 6.33333 9.02335C6.33333 10.6823 7.75339 12.0311 9.5 12.0311Z" fill="#127AEE"/>
</svg>
