<svg width="60" height="60" viewBox="0 0 60 60" fill="none" xmlns="http://www.w3.org/2000/svg">
<path d="M26.9624 57.1875C27.4802 57.1875 27.8999 56.7678 27.8999 56.25C27.8999 55.7322 27.4802 55.3125 26.9624 55.3125C26.4446 55.3125 26.0249 55.7322 26.0249 56.25C26.0249 56.7678 26.4446 57.1875 26.9624 57.1875Z" fill="white"/>
<path d="M11.897 57.1875H24.1501C24.3987 57.1875 24.6372 57.0887 24.813 56.9129C24.9888 56.7371 25.0876 56.4986 25.0876 56.25C25.0876 56.0014 24.9888 55.7629 24.813 55.5871C24.6372 55.4113 24.3987 55.3125 24.1501 55.3125H11.897C11.6483 55.3125 11.4099 55.2137 11.2341 55.0379C11.0582 54.8621 10.9595 54.6236 10.9595 54.375V51.9844C10.9595 51.7357 11.0582 51.4973 11.2341 51.3215C11.4099 51.1456 11.6483 51.0469 11.897 51.0469H48.1032C48.3519 51.0469 48.5903 51.1456 48.7661 51.3215C48.9419 51.4973 49.0407 51.7357 49.0407 51.9844V54.375C49.0407 54.6236 48.9419 54.8621 48.7661 55.0379C48.5903 55.2137 48.3519 55.3125 48.1032 55.3125H30.7126C30.464 55.3125 30.2255 55.4113 30.0497 55.5871C29.8739 55.7629 29.7751 56.0014 29.7751 56.25C29.7751 56.4986 29.8739 56.7371 30.0497 56.9129C30.2255 57.0887 30.464 57.1875 30.7126 57.1875H48.1032C48.8491 57.1875 49.5645 56.8912 50.092 56.3637C50.6194 55.8363 50.9157 55.1209 50.9157 54.375V51.9844C50.9157 51.2385 50.6194 50.5231 50.092 49.9956C49.5645 49.4682 48.8491 49.1719 48.1032 49.1719H47.0532C47.0324 45.1873 45.908 41.2864 43.8046 37.9021C41.7012 34.5179 38.7012 31.7826 35.1376 30C39.4782 27.7781 46.6782 22.3406 47.0532 10.8469H48.1032C48.8491 10.8469 49.5645 10.5506 50.092 10.0231C50.6194 9.49567 50.9157 8.7803 50.9157 8.03437V5.625C50.9157 4.87908 50.6194 4.16371 50.092 3.63626C49.5645 3.10882 48.8491 2.8125 48.1032 2.8125H35.8501C35.6015 2.8125 35.363 2.91127 35.1872 3.08709C35.0114 3.2629 34.9126 3.50136 34.9126 3.75C34.9126 3.99864 35.0114 4.2371 35.1872 4.41291C35.363 4.58873 35.6015 4.6875 35.8501 4.6875H48.1032C48.3519 4.6875 48.5903 4.78627 48.7661 4.96209C48.9419 5.1379 49.0407 5.37636 49.0407 5.625V8.01562C49.0407 8.26427 48.9419 8.50272 48.7661 8.67854C48.5903 8.85435 48.3519 8.95312 48.1032 8.95312H11.897C11.6483 8.95312 11.4099 8.85435 11.2341 8.67854C11.0582 8.50272 10.9595 8.26427 10.9595 8.01562V5.625C10.9595 5.37636 11.0582 5.1379 11.2341 4.96209C11.4099 4.78627 11.6483 4.6875 11.897 4.6875H29.2876C29.5362 4.6875 29.7747 4.58873 29.9505 4.41291C30.1263 4.2371 30.2251 3.99864 30.2251 3.75C30.2251 3.50136 30.1263 3.2629 29.9505 3.08709C29.7747 2.91127 29.5362 2.8125 29.2876 2.8125H11.897C11.1511 2.8125 10.4357 3.10882 9.90824 3.63626C9.38079 4.16371 9.08447 4.87908 9.08447 5.625V8.01562C9.08447 8.76155 9.38079 9.47692 9.90824 10.0044C10.4357 10.5318 11.1511 10.8281 11.897 10.8281H45.197C44.8595 20.8031 39.122 25.8281 34.2751 28.3125C33.9581 28.466 33.6907 28.7058 33.5037 29.0042C33.3166 29.3027 33.2174 29.6478 33.2174 30C33.2174 30.3522 33.3166 30.6973 33.5037 30.9958C33.6907 31.2942 33.9581 31.534 34.2751 31.6875C39.122 34.1625 44.8595 39.1875 45.197 49.1719H14.8032C15.1407 39.1969 20.8782 34.1719 25.7251 31.6875C26.0421 31.534 26.3095 31.2942 26.4965 30.9958C26.6836 30.6973 26.7828 30.3522 26.7828 30C26.7828 29.6478 26.6836 29.3027 26.4965 29.0042C26.3095 28.7058 26.0421 28.466 25.7251 28.3125C22.761 26.8726 20.2175 24.6941 18.3391 21.9866C16.4608 19.2791 15.3109 16.1337 15.0001 12.8531C14.9715 12.6045 14.8453 12.3774 14.6493 12.2218C14.4532 12.0662 14.2034 11.9948 13.9548 12.0234C13.7061 12.052 13.479 12.1782 13.3234 12.3743C13.1679 12.5703 13.0965 12.8201 13.1251 13.0687C13.4769 16.6572 14.7398 20.0962 16.7941 23.0594C18.8483 26.0226 21.6257 28.4117 24.8626 30C20.522 32.2219 13.322 37.6594 12.947 49.1531H11.897C11.1511 49.1531 10.4357 49.4494 9.90824 49.9769C9.38079 50.5043 9.08447 51.2197 9.08447 51.9656V54.375C9.08447 55.1209 9.38079 55.8363 9.90824 56.3637C10.4357 56.8912 11.1511 57.1875 11.897 57.1875Z" fill="white"/>
<path d="M33.0376 4.6875C33.5554 4.6875 33.9751 4.26777 33.9751 3.75C33.9751 3.23223 33.5554 2.8125 33.0376 2.8125C32.5198 2.8125 32.1001 3.23223 32.1001 3.75C32.1001 4.26777 32.5198 4.6875 33.0376 4.6875Z" fill="white"/>
<path d="M38.7375 38.7376C38.9197 38.5723 39.0296 38.3422 39.0437 38.0967C39.0577 37.8511 38.9747 37.61 38.8126 37.4251C38.6473 37.2429 38.4172 37.133 38.1716 37.119C37.9261 37.1049 37.6849 37.1879 37.5 37.3501C37.3602 37.4772 37.262 37.6436 37.2184 37.8276C37.1748 38.0115 37.1878 38.2043 37.2557 38.3807C37.3237 38.5571 37.4433 38.7088 37.599 38.816C37.7547 38.9232 37.9392 38.9808 38.1282 38.9813C38.354 38.9761 38.5704 38.8896 38.7375 38.7376Z" fill="white"/>
<path d="M29.4469 33.2719C29.5854 33.0686 29.6384 32.8191 29.5945 32.5771C29.5507 32.3351 29.4135 32.12 29.2125 31.9782C29.0115 31.8378 28.7635 31.7818 28.5217 31.8221C28.2798 31.8624 28.0634 31.9958 27.9188 32.1938C27.8471 32.2947 27.7962 32.4088 27.7688 32.5294C27.7414 32.6501 27.7383 32.775 27.7594 32.8969C27.8036 33.1397 27.9417 33.3553 28.1438 33.4969C28.302 33.6115 28.4921 33.6738 28.6875 33.6751C28.8371 33.6733 28.984 33.6358 29.1162 33.5657C29.2483 33.4955 29.3617 33.3948 29.4469 33.2719Z" fill="white"/>
<path d="M33.4218 26.6437C35.5555 25.5713 37.4647 24.1012 39.0468 22.3125C39.168 22.1727 39.2451 22.0002 39.2684 21.8167C39.2918 21.6332 39.2603 21.4469 39.178 21.2812C39.0944 21.1082 38.9596 20.965 38.7919 20.8711C38.6243 20.7772 38.4318 20.7371 38.2405 20.7562C32.7141 21.1012 27.1711 21.0856 21.6468 20.7093C21.4566 20.6894 21.2648 20.7281 21.0972 20.8203C20.9297 20.9124 20.7943 21.0536 20.7093 21.225C20.6257 21.3897 20.5927 21.5755 20.6144 21.759C20.6361 21.9425 20.7115 22.1154 20.8312 22.2562C22.4183 24.0738 24.3449 25.5642 26.503 26.6437C27.0153 26.9091 27.4595 27.289 27.801 27.7541C28.1424 28.2191 28.372 28.7567 28.4718 29.325C28.5097 29.5451 28.625 29.7444 28.7969 29.8871C28.9688 30.0297 29.1859 30.1063 29.4093 30.1031C29.4243 31.1236 29.7166 32.1207 30.255 32.9878C30.7934 33.8548 31.5575 34.559 32.4655 35.025C33.4922 35.5553 34.4654 36.1832 35.3718 36.9C35.5354 37.027 35.7365 37.0962 35.9436 37.0968C36.086 37.0976 36.2268 37.0659 36.3551 37.0042C36.4834 36.9425 36.596 36.8523 36.6843 36.7406C36.8365 36.5451 36.9052 36.2974 36.8753 36.0515C36.8455 35.8055 36.7195 35.5814 36.5249 35.4281C35.5277 34.6406 34.4535 33.9559 33.3187 33.3843C32.6946 33.0733 32.1697 32.5945 31.8027 32.0016C31.4358 31.4087 31.2414 30.7253 31.2414 30.0281C31.2414 29.3308 31.4358 28.6474 31.8027 28.0545C32.1697 27.4617 32.6946 26.9828 33.3187 26.6718L33.4218 26.6437ZM29.9999 27.6937C29.4827 26.5184 28.5752 25.5579 27.4311 24.975C26.2168 24.3585 25.078 23.6035 24.0374 22.725C28.0499 22.9218 32.0718 22.9312 35.9155 22.725C34.8858 23.5848 33.7632 24.3269 32.5687 24.9375C31.4182 25.5298 30.5099 26.5044 29.9999 27.6937Z" fill="white"/>
<path d="M26.9531 35.2782C27.0608 35.2166 27.1553 35.1344 27.2313 35.0363C27.3073 34.9382 27.3632 34.8261 27.3958 34.7064C27.4285 34.5867 27.4372 34.4618 27.4216 34.3387C27.4059 34.2156 27.3662 34.0968 27.3046 33.9891C27.2431 33.8814 27.1609 33.7868 27.0628 33.7109C26.9647 33.6349 26.8526 33.579 26.7329 33.5464C26.6132 33.5137 26.4883 33.505 26.3652 33.5206C26.2421 33.5363 26.1233 33.576 26.0156 33.6375C23.631 34.8815 21.5697 36.6649 19.9959 38.8458C18.422 41.0267 17.379 43.545 16.9499 46.2C16.9272 46.334 16.9339 46.4713 16.9695 46.6024C17.0052 46.7335 17.0688 46.8554 17.1562 46.9594C17.2433 47.064 17.3522 47.1484 17.4752 47.2067C17.5983 47.265 17.7326 47.2958 17.8687 47.2969H42.0937C42.2315 47.2989 42.368 47.2706 42.4935 47.2138C42.619 47.1571 42.7305 47.0734 42.82 46.9686C42.9095 46.8639 42.9749 46.7407 43.0114 46.6079C43.0479 46.4751 43.0546 46.3358 43.0312 46.2C42.7135 44.2571 42.0801 42.3792 41.1562 40.6407C41.0973 40.5321 41.0176 40.4363 40.9216 40.3586C40.8255 40.281 40.7151 40.2231 40.5966 40.1882C40.4782 40.1534 40.354 40.1423 40.2312 40.1556C40.1084 40.1689 39.9895 40.2063 39.8812 40.2657C39.7726 40.3245 39.6768 40.4043 39.5991 40.5003C39.5215 40.5963 39.4636 40.7068 39.4287 40.8252C39.3939 40.9437 39.3828 41.0679 39.3961 41.1907C39.4094 41.3135 39.4468 41.4324 39.5062 41.5407C40.1657 42.7649 40.6636 44.0696 40.9874 45.4219H19.0593C19.5659 43.2619 20.5336 41.2371 21.8961 39.4862C23.2586 37.7353 24.9837 36.2998 26.9531 35.2782Z" fill="white"/>
</svg>
