<svg width="16" height="16" viewBox="0 0 16 16" fill="none" xmlns="http://www.w3.org/2000/svg">
<path fill-rule="evenodd" clip-rule="evenodd" d="M6.86028 2.17334C5.61723 2.17334 4.42509 2.66714 3.54611 3.54611C2.66714 4.42509 2.17334 5.61723 2.17334 6.86028C2.17334 8.10334 2.66714 9.29548 3.54611 10.1745C4.42509 11.0534 5.61723 11.5472 6.86028 11.5472C8.09589 11.5472 9.2812 11.0593 10.1586 10.1902C10.1648 10.1838 10.171 10.1774 10.1773 10.171C10.183 10.1653 10.1888 10.1597 10.1946 10.1542C11.061 9.27723 11.5472 8.09383 11.5472 6.86028C11.5472 5.61723 11.0534 4.42509 10.1745 3.54611C9.29548 2.66714 8.10334 2.17334 6.86028 2.17334ZM12.2445 10.8258C13.0856 9.68389 13.5472 8.29589 13.5472 6.86028C13.5472 5.0868 12.8427 3.38595 11.5887 2.1319C10.3346 0.877855 8.63377 0.17334 6.86028 0.17334C5.0868 0.17334 3.38595 0.877855 2.1319 2.1319C0.877855 3.38595 0.17334 5.0868 0.17334 6.86028C0.17334 8.63377 0.877855 10.3346 2.1319 11.5887C3.38595 12.8427 5.0868 13.5472 6.86028 13.5472C8.29804 13.5472 9.68806 13.0842 10.831 12.2407L14.1189 15.5331C14.5092 15.9239 15.1423 15.9244 15.5331 15.5341C15.9239 15.1438 15.9244 14.5107 15.5341 14.1199L12.2445 10.8258Z" fill="#127AEE"/>
</svg>
