<svg width="20" height="20" viewBox="0 0 20 20" fill="none" xmlns="http://www.w3.org/2000/svg">
<g clip-path="url(#clip0_2039_2765)">
<path d="M5.32617 14.7058V19.8554L9.34789 18.5422V13.3926L5.32617 14.7058Z" fill="#272727"/>
<path d="M18.3364 7.28711C18.2425 7.93105 17.9461 8.52496 17.4784 8.99262L15.9785 10.4925V13.2945L20.0003 11.798V6.66797L18.3364 7.28711Z" fill="#272727"/>
<path d="M0 0.144531V5.27457L4.02176 6.77106V1.64102L0 0.144531Z" fill="#272727"/>
<path d="M15.9785 1.64102V3.86684C16.5428 3.98918 17.061 4.26941 17.4784 4.6868C17.8323 5.0407 18.0879 5.46707 18.2321 5.9325L20.0003 5.27457V0.144531L15.9785 1.64102Z" fill="#272727"/>
<path d="M10.6523 13.3926V18.5422L14.6741 19.8554V14.7058L10.6523 13.3926Z" fill="#272727"/>
<path d="M13.1742 8.99254C12.7292 8.54758 12.4511 7.99793 12.3398 7.42211L10.6523 6.87109V12.0207L14.6741 13.3339V10.4924L13.1742 8.99254Z" fill="#272727"/>
<path d="M5.32617 8.18434V13.3339L9.34789 12.0207V6.87109L5.32617 8.18434Z" fill="#272727"/>
<path d="M5.32617 1.66086V6.81047L9.34789 5.49727V0.347656L5.32617 1.66086Z" fill="#272727"/>
<path d="M15.9785 14.6859V19.816L20.0003 18.3195V13.1895L15.9785 14.6859Z" fill="#272727"/>
<path d="M10.6523 0.347656V5.49727L12.3848 6.06297C12.517 5.55848 12.7795 5.08141 13.1742 4.68676C13.5916 4.26938 14.1098 3.98914 14.6741 3.8668V1.66086L10.6523 0.347656Z" fill="#272727"/>
<path d="M0 13.1895V18.3195L4.02176 19.816V14.6859L0 13.1895Z" fill="#272727"/>
<path d="M0 6.66797V11.798L4.02176 13.2945V8.16445L0 6.66797Z" fill="#272727"/>
<path d="M16.5559 5.6098C16.2282 5.28203 15.7914 5.10156 15.3262 5.10156C14.8609 5.10156 14.4242 5.28203 14.0965 5.60977C13.4184 6.28785 13.4184 7.39121 14.0965 8.0693L15.3262 9.29902L16.5559 8.0693C16.8837 7.74152 17.0642 7.30477 17.0642 6.83957C17.0642 6.37426 16.8837 5.93754 16.5559 5.6098ZM15.3262 7.49277C14.9666 7.49277 14.674 7.2002 14.674 6.84059C14.674 6.48098 14.9666 6.1884 15.3262 6.1884C15.6858 6.1884 15.9784 6.48098 15.9784 6.84059C15.9784 7.2002 15.6858 7.49277 15.3262 7.49277Z" fill="#272727"/>
</g>
<defs>
<clipPath id="clip0_2039_2765">
<rect width="20" height="20" fill="white"/>
</clipPath>
</defs>
</svg>
