<svg width="60" height="60" viewBox="0 0 60 60" fill="none" xmlns="http://www.w3.org/2000/svg">
<g clip-path="url(#clip0_182_3500)">
<path d="M40.3952 44.313C39.5201 44.313 39.0511 43.2426 39.6356 42.5982C45.9513 35.6363 49.1361 26.8313 49.1079 16.4173C44.2931 15.3154 40.8097 11.4985 40.4354 6.9231H19.5772C19.2031 11.5005 15.7171 15.3181 10.8994 16.4185C10.7892 27.2232 13.7011 36.0307 19.5602 42.6046C19.9371 43.0276 19.8998 43.6758 19.4769 44.0527C19.054 44.4295 18.4056 44.3922 18.0285 43.9694C15.2029 40.799 12.992 37.0687 11.457 32.8821C9.58121 27.7655 8.70826 21.9323 8.86262 15.5444C8.87429 15.0582 9.22595 14.6471 9.70454 14.56C9.71275 14.5585 9.72172 14.5571 9.72993 14.5558C14.2848 13.8421 17.5774 10.2725 17.5589 6.0681C17.5561 5.4531 17.9033 4.87195 18.5839 4.87195H41.4285C42.1012 4.87195 42.4726 5.454 42.4535 6.069C42.4353 10.2731 45.7281 13.8425 50.2831 14.5559C50.7751 14.633 51.1407 15.0521 51.1501 15.5499C51.2671 21.7573 50.2739 27.5308 48.1978 32.7098C46.528 36.875 44.1585 40.6658 41.1551 43.9766C40.9527 44.1995 40.6744 44.313 40.3952 44.313Z" fill="white"/>
<path d="M30.0018 40.0595C23.6385 40.0595 18.4614 34.893 18.4614 28.5428C18.4614 22.1925 23.6385 17.0261 30.0018 17.0261C36.3651 17.0261 41.5422 22.1925 41.5422 28.5428C41.5422 34.893 36.3651 40.0595 30.0018 40.0595ZM30.0018 19.0774C24.7698 19.0774 20.5131 23.3236 20.5131 28.5428C20.5131 33.762 24.7698 38.0082 30.0018 38.0082C35.2339 38.0082 39.4905 33.762 39.4905 28.5428C39.4905 23.3236 35.234 19.0774 30.0018 19.0774Z" fill="white"/>
<path d="M27.2873 32.3964L24.5907 29.1932C24.2258 28.7599 24.2814 28.1128 24.7149 27.7482C25.1484 27.3836 25.7955 27.4391 26.1603 27.8724L28.1182 30.1983L34.4305 23.5533C34.8208 23.1428 35.4701 23.126 35.8808 23.516C36.2916 23.9061 36.3084 24.5552 35.9181 24.9661L28.8158 32.4426C28.399 32.8526 27.7578 32.8846 27.2873 32.3964Z" fill="white"/>
<path d="M55.1679 49.2642L59.7787 43.5416C60.3146 42.8763 59.811 41.9231 58.9799 41.9231H47.6601C47.124 41.9231 46.6344 42.3237 46.6344 42.8825L46.6346 46.5385H13.3769L13.3672 42.8922C13.3656 42.3269 12.9069 41.9231 12.3414 41.9231H1.02166C0.184867 41.9231 -0.314107 42.8878 0.222816 43.5542L4.83346 49.2705L0.222816 54.9901C-0.307184 55.648 0.176662 56.6667 1.02166 56.6667H11.4109V58.9744C11.4109 59.5408 11.8083 60 12.3749 60H47.6615C48.2281 60 48.7186 59.5408 48.7186 58.9744V56.6667H58.9796C59.8244 56.6667 60.3077 55.6467 59.7785 54.9896L55.1679 49.2642ZM3.16512 54.6154L6.94948 49.913C7.25205 49.5373 7.25205 49.0244 6.94948 48.6487L3.16525 43.9744H11.3182L11.3464 54.6154H3.16512ZM46.67 57.9487H13.4622V48.5898H46.6349L46.67 57.9487ZM48.7217 54.6154L48.686 43.9744H56.8363L53.0519 48.646C52.7494 49.0217 52.7494 49.5499 53.0519 49.9255L56.8362 54.6154H48.7217Z" fill="white"/>
</g>
<defs>
<clipPath id="clip0_182_3500">
<rect width="60" height="60" fill="white"/>
</clipPath>
</defs>
</svg>
