<svg width="32" height="32" viewBox="0 0 32 32" fill="none" xmlns="http://www.w3.org/2000/svg">
<g clip-path="url(#clip0_2003_2144)">
<path fill-rule="evenodd" clip-rule="evenodd" d="M16 32C24.8366 32 32 24.8366 32 16C32 7.16344 24.8366 0 16 0C7.16344 0 0 7.16344 0 16C0 24.8366 7.16344 32 16 32ZM16.16 24.52C21.04 24.52 25 20.6 25 15.76C25 10.92 21.04 7 16.16 7C11.28 7 7.32 10.92 7.34 15.78C7.34 17.42 7.8 18.98 8.6 20.3L7 25L11.88 23.42C13.16 24.12 14.62 24.52 16.16 24.52ZM8.74 15.76C8.74 11.7 12.06 8.4 16.16 8.4C20.26 8.4 23.6 11.68 23.6 15.76C23.6 19.84 20.26 23.14 16.18 23.14C14.68 23.14 13.28 22.7 12.1 21.92L9.24 22.82L10.16 20.08C9.26 18.86 8.74 17.38 8.74 15.76ZM20.335 17.5921C20.4783 17.6677 20.5734 17.7178 20.62 17.78C20.68 17.88 20.68 18.3 20.52 18.78C20.34 19.28 19.46 19.76 19.06 19.8C18.9929 19.8067 18.9371 19.8202 18.8803 19.8339C18.5982 19.9018 18.2912 19.9758 16.46 19.26C14.3882 18.4501 13.0259 16.4164 12.7906 16.0652C12.7761 16.0435 12.7658 16.0282 12.76 16.02C12.7553 16.0134 12.7491 16.005 12.7416 15.9946C12.5887 15.7844 11.88 14.8104 11.88 13.8C11.88 12.8138 12.3647 12.2951 12.5933 12.0504C12.6104 12.0321 12.6261 12.0153 12.64 12C12.84 11.8 13.08 11.74 13.22 11.74C13.2927 11.74 13.3708 11.7454 13.4459 11.7506C13.5154 11.7554 13.5823 11.76 13.64 11.76C13.6527 11.76 13.6661 11.7593 13.6802 11.7586C13.7982 11.7527 13.9591 11.7446 14.12 12.12C14.1684 12.2382 14.234 12.4012 14.3054 12.5782C14.4997 13.0602 14.7361 13.6469 14.78 13.72C14.84 13.84 14.88 13.96 14.8 14.1C14.7781 14.1383 14.7592 14.1737 14.7412 14.2073C14.6936 14.2963 14.6526 14.3729 14.58 14.46C14.5499 14.4961 14.518 14.5358 14.4854 14.5764C14.4096 14.6708 14.3299 14.7701 14.26 14.84C14.14 14.94 14.04 15.06 14.16 15.28C14.28 15.48 14.72 16.2 15.36 16.76C16.0774 17.3899 16.703 17.6525 16.9956 17.7752C17.0375 17.7928 17.0725 17.8075 17.1 17.82C17.3 17.92 17.44 17.9 17.56 17.76C17.573 17.7448 17.5895 17.7257 17.6089 17.7033C17.7678 17.519 18.1152 17.1162 18.24 16.92C18.38 16.72 18.52 16.74 18.72 16.82C18.8449 16.8699 19.3049 17.0914 19.6864 17.275C19.9161 17.3856 20.1173 17.4824 20.2 17.52C20.249 17.5467 20.294 17.5704 20.335 17.5921Z" fill="white"/>
</g>
<defs>
<clipPath id="clip0_2003_2144">
<rect width="32" height="32" fill="white"/>
</clipPath>
</defs>
</svg>
